<?xml version="1.0" standalone="no"?>
<!DOCTYPE svg PUBLIC "-//W3C//DTD SVG 20010904//EN"
 "http://www.w3.org/TR/2001/REC-SVG-20010904/DTD/svg10.dtd">
<svg version="1.0" xmlns="http://www.w3.org/2000/svg"
 width="709.000000pt" height="709.000000pt" viewBox="0 0 709.000000 709.000000"
 preserveAspectRatio="xMidYMid meet">
<metadata>
Created by potrace 1.11, written by Peter Selinger 2001-2013
</metadata>
<g transform="translate(0.000000,709.000000) scale(0.100000,-0.100000)"
fill="#000000" stroke="none">
<path d="M134 7081 c-46 -12 -89 -46 -110 -88 -18 -37 -19 -135 -19 -3448 0
-3334 0 -3411 19 -3448 11 -22 37 -51 59 -65 l41 -27 3421 0 3421 0 41 27 c22
14 48 43 59 65 19 37 19 114 19 3448 0 3334 0 3411 -19 3448 -11 22 -37 51
-59 65 l-41 27 -3400 2 c-1871 0 -3415 -2 -3432 -6z m3473 -751 c31 -18 68
-51 91 -83 47 -62 2915 -5031 2940 -5091 10 -24 17 -69 17 -107 0 -56 -5 -73
-30 -115 -35 -56 -105 -98 -194 -114 -74 -14 -5808 -14 -5881 0 -195 37 -259
180 -163 365 49 95 2916 5050 2941 5083 14 19 48 47 76 63 70 40 132 40 203
-1z"/>
<path d="M3457 5490 c-183 -33 -290 -136 -317 -304 -34 -213 61 -374 267 -453
91 -34 257 -43 353 -19 176 45 272 184 274 396 1 85 -2 101 -27 152 -34 69
-98 128 -181 167 -113 53 -269 79 -369 61z"/>
<path d="M3274 4667 c-28 -12 -186 -90 -351 -174 -333 -169 -360 -189 -387
-285 -24 -86 -89 -664 -101 -903 -6 -110 -5 -123 14 -152 67 -106 272 -93 333
21 6 11 34 208 63 438 57 464 53 449 137 501 61 38 113 46 127 20 7 -15 -4
-139 -45 -479 -60 -498 -61 -510 -11 -580 12 -17 96 -91 187 -164 258 -208
672 -554 707 -591 45 -48 70 -112 78 -199 28 -332 72 -656 96 -701 51 -100
126 -149 230 -149 69 0 148 29 181 66 30 34 50 96 50 154 0 72 -118 899 -138
970 -9 30 -23 68 -32 84 -10 16 -168 163 -352 328 -184 164 -340 311 -347 326
-9 22 -2 144 31 596 46 602 46 634 3 674 -61 57 -262 200 -296 211 -58 17
-120 13 -177 -12z"/>
<path d="M3861 3718 c-6 -90 -15 -186 -18 -215 l-6 -51 175 -130 c96 -72 204
-149 239 -172 58 -38 69 -41 116 -38 63 5 124 44 148 95 18 36 23 123 11 160
-6 19 -606 496 -641 509 -8 3 -15 -43 -24 -158z"/>
<path d="M2992 2907 c-11 -23 -147 -312 -302 -642 -155 -330 -289 -625 -296
-655 -48 -195 42 -321 230 -321 90 0 133 16 175 67 20 24 146 283 317 649 156
336 283 613 284 616 0 3 -88 79 -195 167 l-194 161 -19 -42z"/>
<path d="M1605 1539 c-170 -203 -316 -378 -324 -389 -13 -20 -10 -20 345 -20
l359 1 210 380 c116 209 212 385 213 390 2 5 -99 9 -245 8 l-248 0 -310 -370z"/>
<path d="M3280 1902 c0 -11 -97 -695 -105 -739 l-6 -33 361 0 360 0 0 24 c0
23 -83 657 -95 724 l-6 32 -254 0 c-140 0 -255 -4 -255 -8z"/>
<path d="M4701 1833 c24 -43 120 -217 215 -388 l172 -310 361 -3 362 -2 -162
192 c-89 106 -237 282 -328 390 l-166 198 -248 0 -248 0 42 -77z"/>
</g>
</svg>
