<svg xmlns="http://www.w3.org/2000/svg" xmlns:xlink="http://www.w3.org/1999/xlink" width="475.149" height="116.246" viewBox="0 0 475.149 116.246"><defs><path id="a" d="M83.1 53.8l-8.87 5.29a8.053 8.053 0 0 1 .867 6.746l17.744 9.96 23.793-14.022-24.07-13.597L83.1 53.8z"/></defs><clipPath id="b"><use xlink:href="#a" overflow="visible"/></clipPath><linearGradient id="c" gradientUnits="userSpaceOnUse" y1="116.278" x2="1" y2="116.278" gradientTransform="scale(41.6262) rotate(28.9 -227.084 -54.026)"><stop offset="0" stop-color="#007416"/><stop offset=".605" stop-color="#219934"/><stop offset="1" stop-color="#38b349"/></linearGradient><path clip-path="url(#b)" fill="url(#c)" d="M84.134 30.237l44.184 24.39-21.59 39.11-44.183-24.392z"/><path fill="#38B349" d="M74.222 59.075L83.1 53.8l9.445-5.636L92.34 0 68.696 14.195l.092 41.242a8.073 8.073 0 0 1 5.432 3.64"/><path fill="#38B349" d="M74.23 59.09l8.87-5.29-8.88 5.275c.005.005.008.01.01.016"/><path fill="none" d="M0 0h475.15v116.246H0z"/><defs><path id="d" d="M43.787 79.116l.386 27.613 23.74-14.168-.193-10.998-.197-10.1c-.042 0-.083.006-.127.006a8.057 8.057 0 0 1-6.145-2.84L43.788 79.115z"/></defs><clipPath id="e"><use xlink:href="#d" overflow="visible"/></clipPath><linearGradient id="f" gradientUnits="userSpaceOnUse" y1="116.284" x2="1" y2="116.284" gradientTransform="scale(41.631) rotate(148.6 -15.707 -56.974)"><stop offset="0" stop-color="#007416"/><stop offset=".605" stop-color="#219934"/><stop offset="1" stop-color="#38b349"/></linearGradient><path clip-path="url(#e)" fill="url(#f)" d="M84.856 96.387l-34.52 21.07-23.492-38.486 34.52-21.07z"/><path fill="#38B349" d="M73.672 68.476a8.06 8.06 0 0 1-6.13 2.987l.177 10.1.212 10.99 41.934 23.693-.61-27.568-35.584-20.202z"/><path fill="#38B349" d="M67.524 71.123l.196 10.1-.178-10.1z"/><path fill="none" d="M0 0h475.15v116.246H0z"/><defs><path id="g" d="M41.61 49.183l9.596 5.38 9.046 5.052a8.09 8.09 0 0 1 5.384-4.11l-.247-20.372L41.35 21.54l.26 27.643z"/></defs><clipPath id="h"><use xlink:href="#g" overflow="visible"/></clipPath><linearGradient id="i" gradientUnits="userSpaceOnUse" y1="116.245" x2="1" y2="116.245" gradientTransform="scale(41.6263) rotate(-91.1 58.407 -58.002)"><stop offset="0" stop-color="#007416"/><stop offset=".605" stop-color="#219934"/><stop offset="1" stop-color="#38b349"/></linearGradient><path clip-path="url(#h)" fill="url(#i)" d="M41.36 60.08l-.74-38.527 25.007-.48.74 38.528z"/><path fill="#38B349" d="M60.244 59.633l-9.038-5.068-9.6-5.36L0 73.466l24.112 13.378 35.69-20.712a8.046 8.046 0 0 1-.487-2.742c0-1.356.338-2.632.93-3.755M60.253 59.615l-9.047-5.05 9.04 5.067.007-.017"/><path fill="#676767" d="M150.567 62.578c0-.773.618-1.47 1.468-1.47h5.1c.774 0 1.47.697 1.47 1.47v45.443h20.943c.85 0 1.468.697 1.468 1.47v4.25c0 .773-.618 1.468-1.468 1.468h-27.513c-.85 0-1.468-.695-1.468-1.468V62.578zM222.664 60.337c15.457 0 27.822 12.443 27.822 27.9 0 15.456-12.365 27.745-27.822 27.745s-27.745-12.29-27.745-27.745c0-15.457 12.287-27.9 27.744-27.9m0 47.916c11.05 0 20.094-8.965 20.094-20.016 0-10.975-9.043-20.17-20.094-20.17-10.974 0-20.017 9.195-20.017 20.17 0 11.05 9.043 20.016 20.017 20.016M268.715 62.578c0-.773.696-1.47 1.468-1.47h5.1c.85 0 1.47.697 1.47 1.47V84.14h28.285V62.578c0-.773.618-1.47 1.47-1.47h5.1c.772 0 1.467.697 1.467 1.47v51.162c0 .773-.695 1.468-1.468 1.468h-5.1c-.85 0-1.47-.695-1.47-1.468V91.405h-28.285v22.335c0 .773-.618 1.468-1.468 1.468h-5.1c-.773 0-1.47-.695-1.47-1.468V62.578zM338.338 62.578c0-.773.696-1.47 1.468-1.47h5.1c.774 0 1.47.697 1.47 1.47v51.162c0 .773-.696 1.468-1.47 1.468h-5.1c-.772 0-1.468-.695-1.468-1.468V62.578zM371.64 62.965c0-1.005.77-1.855 1.854-1.855h4.482a1.88 1.88 0 0 1 1.855 1.855v21.408l21.795-22.49c.31-.387.85-.773 1.468-.773h5.797c1.39 0 2.163 1.623 1.082 2.782l-22.336 22.722 23.65 26.044c.618.773.23 2.55-1.392 2.55h-6.182c-.774 0-1.237-.308-1.392-.54l-22.49-25.35v24.036a1.88 1.88 0 0 1-1.854 1.855h-4.482c-1.083 0-1.855-.85-1.855-1.856v-50.39zM424.296 113.2l23.726-52.013c.232-.464.927-.85 1.314-.85h.773c.385 0 1.08.386 1.312.85l23.572 52.012c.464 1.004-.154 2.01-1.314 2.01h-4.87c-.926 0-1.467-.465-1.776-1.16l-4.792-10.59H436.97c-1.545 3.556-3.168 7.034-4.714 10.59-.232.54-.85 1.16-1.777 1.16h-4.87c-1.16 0-1.778-1.006-1.314-2.01m35.01-16.385l-9.507-21.176h-.387l-9.43 21.175h19.322z"/><path fill="none" d="M0 0h475.15v116.246H0z"/></svg>