<?xml version="1.0" encoding="utf-8"?>
<!-- Generator: Adobe Illustrator 17.0.0, SVG Export Plug-In . SVG Version: 6.00 Build 0)  -->
<!DOCTYPE svg PUBLIC "-//W3C//DTD SVG 1.1//EN" "http://www.w3.org/Graphics/SVG/1.1/DTD/svg11.dtd">
<svg version="1.1" id="Layer_1" xmlns="http://www.w3.org/2000/svg" xmlns:xlink="http://www.w3.org/1999/xlink" x="0px" y="0px"
	 width="17px" height="17px" viewBox="0 0 17 17" enable-background="new 0 0 17 17" xml:space="preserve">
<path fill="#FFFFFF" d="M15.617,4.149h-5.68l2.241-2.682c0.036,0.006,0.067,0.02,0.104,0.02c0.369,0,0.667-0.298,0.667-0.666
	c0-0.366-0.298-0.666-0.667-0.666c-0.367,0-0.667,0.3-0.667,0.666c0,0.081,0.02,0.155,0.046,0.226L9.068,4.149H8.824L6.233,1.046
	c0.025-0.071,0.045-0.145,0.045-0.226c0-0.366-0.298-0.666-0.667-0.666c-0.368,0-0.667,0.3-0.667,0.666
	c0,0.368,0.3,0.666,0.667,0.666c0.037,0,0.069-0.014,0.104-0.02l2.241,2.682h-5.68c-0.736,0-1.334,0.596-1.334,1.331v9.319
	c0,0.735,0.597,1.331,1.334,1.331h13.341c0.736,0,1.334-0.596,1.334-1.331V5.479C16.95,4.745,16.353,4.149,15.617,4.149z
	 M12.948,13.467c0,0.735-0.597,1.331-1.334,1.331H3.61c-0.737,0-1.334-0.597-1.334-1.331V6.811c0-0.736,0.598-1.332,1.334-1.332
	h8.004c0.738,0,1.334,0.596,1.334,1.332V13.467z M14.914,7.518c-0.526,0-0.953-0.426-0.953-0.951c0-0.525,0.427-0.95,0.953-0.95
	c0.526,0,0.952,0.425,0.952,0.95C15.866,7.092,15.439,7.518,14.914,7.518z"/>
</svg>
